<svg width="101" height="24" viewBox="0 0 101 24" fill="none" xmlns="http://www.w3.org/2000/svg">
<path fill-rule="evenodd" clip-rule="evenodd" d="M0.00439453 9.99054V1.33331H11.1905V5.35593H3.99907V9.99054H0.00439453Z" fill="white" style="mix-blend-mode:difference"/>
<path fill-rule="evenodd" clip-rule="evenodd" d="M13.8306 9.99537V1.34485H25.0063V5.34889H17.8464V9.99417L13.8306 9.99537Z" fill="white" style="mix-blend-mode:difference"/>
<path fill-rule="evenodd" clip-rule="evenodd" d="M13.835 12.3347H17.8466V16.9751H24.9917V20.9705H13.835V12.3347Z" fill="white" style="mix-blend-mode:difference"/>
<path fill-rule="evenodd" clip-rule="evenodd" d="M27.6968 20.9898V12.3287H31.6995V16.978H38.8613V20.9845L27.6968 20.9898Z" fill="white" style="mix-blend-mode:difference"/>
<path fill-rule="evenodd" clip-rule="evenodd" d="M0 16.9761H7.15111V12.3116H11.1795V20.984H0V16.9761Z" fill="white" style="mix-blend-mode:difference"/>
<path fill-rule="evenodd" clip-rule="evenodd" d="M50.9301 5.28777L49.6374 5.46178C49.5007 4.86517 48.9538 4.50472 48.1832 4.50472C47.5617 4.50472 47.0397 4.72845 47.0397 5.13862C47.0397 5.52393 47.4126 5.73522 47.9843 5.85952L48.7052 6.00867C49.9482 6.28212 51.0046 6.63014 51.0046 7.82335C51.0046 9.11601 49.7866 9.82448 48.3448 9.82448C46.7414 9.82448 45.7097 8.91714 45.5854 7.81092L46.9278 7.61206C47.0397 8.27081 47.512 8.78041 48.3945 8.78041C49.1527 8.78041 49.6498 8.50697 49.6498 8.00979C49.6498 7.51262 49.1154 7.33861 48.4815 7.20189L47.6736 7.02788C46.6047 6.80415 45.7346 6.36912 45.7346 5.22562C45.7346 4.13184 46.8905 3.46065 48.2826 3.46065C49.5628 3.46065 50.6939 4.09455 50.9301 5.28777ZM54.7956 9.82448C52.7696 9.82448 51.7504 8.41996 51.7504 6.64257C51.7504 4.76573 52.9561 3.46065 54.7583 3.46065C56.6973 3.46065 57.8284 4.93975 57.7165 7.05274H53.1425C53.1674 8.05951 53.8385 8.71827 54.7707 8.71827C55.6408 8.71827 56.0758 8.3081 56.2871 7.76121L57.6171 7.93522C57.3312 8.84256 56.4487 9.82448 54.7956 9.82448ZM54.7707 4.51715C53.9628 4.51715 53.1922 4.97703 53.1425 6.03353H56.312C56.2747 5.10133 55.6035 4.51715 54.7707 4.51715ZM60.2024 3.58495V4.34314C60.5504 3.79625 61.2091 3.46065 62.0792 3.46065C62.8622 3.46065 63.4464 3.72167 63.7944 4.21884C64.0555 4.60415 64.1922 5.12619 64.1922 5.90924V9.67533H62.8125V6.25726C62.8125 5.61093 62.7504 5.16347 62.4769 4.89003C62.3029 4.71602 62.017 4.60415 61.6442 4.60415C60.5877 4.60415 60.2024 5.39963 60.2024 6.51827V9.67533H58.8227V3.58495H60.2024ZM70.5311 5.28777L69.2385 5.46178C69.1018 4.86517 68.5549 4.50472 67.7843 4.50472C67.1628 4.50472 66.6408 4.72845 66.6408 5.13862C66.6408 5.52393 67.0136 5.73522 67.5854 5.85952L68.3063 6.00867C69.5492 6.28212 70.6057 6.63014 70.6057 7.82335C70.6057 9.11601 69.3876 9.82448 67.9458 9.82448C66.3425 9.82448 65.3108 8.91714 65.1865 7.81092L66.5289 7.61206C66.6408 8.27081 67.1131 8.78041 67.9956 8.78041C68.7538 8.78041 69.2509 8.50697 69.2509 8.00979C69.2509 7.51262 68.7165 7.33861 68.0826 7.20189L67.2747 7.02788C66.2057 6.80415 65.3357 6.36912 65.3357 5.22562C65.3357 4.13184 66.4916 3.46065 67.8837 3.46065C69.1639 3.46065 70.295 4.09455 70.5311 5.28777ZM74.3967 9.82448C72.3707 9.82448 71.3515 8.41996 71.3515 6.64257C71.3515 4.76573 72.5571 3.46065 74.3594 3.46065C76.2984 3.46065 77.4294 4.93975 77.3176 7.05274H72.7436C72.7684 8.05951 73.4396 8.71827 74.3718 8.71827C75.2419 8.71827 75.6769 8.3081 75.8882 7.76121L77.2181 7.93522C76.9323 8.84256 76.0498 9.82448 74.3967 9.82448ZM74.3718 4.51715C73.5639 4.51715 72.7933 4.97703 72.7436 6.03353H75.9131C75.8758 5.10133 75.2046 4.51715 74.3718 4.51715ZM79.5549 5.47421L78.2746 5.43692C78.3616 4.23127 79.3436 3.4358 80.9469 3.4358C82.7119 3.4358 83.4701 4.06969 83.4701 5.77251C83.4701 6.17025 83.4452 7.18946 83.4452 7.52505C83.4452 8.3081 83.4825 8.942 83.5695 9.67533H82.2769L82.2396 8.942C81.8543 9.51375 81.2577 9.82448 80.2633 9.82448C78.8588 9.82448 78.0633 8.87985 78.0633 7.83578C78.0633 7.23918 78.3368 6.79172 78.7345 6.51827C79.2814 6.14539 80.0272 5.99624 80.9594 5.88438L82.1029 5.76008V5.54878C82.1029 4.71602 81.6057 4.46743 80.8724 4.46743C80.0893 4.46743 79.617 4.82788 79.5549 5.47421ZM82.1526 7.13974V6.76686L80.9967 6.89115C79.9526 7.00302 79.4927 7.28889 79.4927 7.84821C79.4927 8.37025 79.9029 8.74313 80.5616 8.74313C81.3695 8.74313 82.1526 8.28324 82.1526 7.13974ZM84.887 9.67533V1.42224H86.2667V4.30585C86.652 3.75896 87.2238 3.46065 88.0441 3.46065C89.5605 3.46065 90.6543 4.65387 90.6543 6.655C90.6543 8.6064 89.4983 9.82448 87.9447 9.82448C87.1492 9.82448 86.5774 9.48889 86.2418 9.05386L86.217 9.67533H84.887ZM87.7582 4.56687C86.8509 4.56687 86.2046 5.28777 86.2046 6.655C86.2046 7.99737 86.8384 8.71827 87.7582 8.71827C88.7153 8.71827 89.2373 7.89793 89.2373 6.64257C89.2373 5.3872 88.7277 4.56687 87.7582 4.56687ZM93.165 1.42224V9.67533H91.7853V1.42224H93.165ZM97.3288 9.82448C95.3028 9.82448 94.2836 8.41996 94.2836 6.64257C94.2836 4.76573 95.4893 3.46065 97.2915 3.46065C99.2305 3.46065 100.362 4.93975 100.25 7.05274H95.6757C95.7006 8.05951 96.3718 8.71827 97.304 8.71827C98.174 8.71827 98.609 8.3081 98.8203 7.76121L100.15 7.93522C99.8644 8.84256 98.9819 9.82448 97.3288 9.82448ZM97.304 4.51715C96.496 4.51715 95.7254 4.97703 95.6757 6.03353H98.8452C98.8079 5.10133 98.1367 4.51715 97.304 4.51715Z" fill="white" style="mix-blend-mode:difference"/>
<path fill-rule="evenodd" clip-rule="evenodd" d="M48.6307 14.6042C50.0103 14.6042 51.1041 15.4121 51.3651 16.6923L50.0352 16.8788C49.9109 16.22 49.4137 15.7104 48.5934 15.7104C47.6985 15.7104 47.0273 16.394 47.0273 17.7737C47.0273 19.1658 47.7109 19.8618 48.5934 19.8618C49.2894 19.8618 49.8985 19.5138 50.0725 18.681L51.4149 18.855C51.1041 20.2098 49.9358 20.968 48.5685 20.968C46.6917 20.968 45.6104 19.6381 45.6104 17.7861C45.6104 15.9341 46.7166 14.6042 48.6307 14.6042ZM52.4589 14.7285H53.8386V20.8189H52.4589V14.7285ZM52.4589 12.5658H53.8386V13.9579H52.4589V12.5658ZM55.5663 14.7285V12.9635H56.9459V14.7285H58.1888V15.785H56.9459V18.942C56.9459 19.5759 57.0951 19.7251 57.6792 19.7251H58.1764V20.8189H57.1696C55.8397 20.8189 55.5663 20.4584 55.5663 19.1906V15.785H54.6465V14.7285H55.5663ZM59.6307 22.9692H59.0092V21.8132H59.5312C60.1278 21.8132 60.3764 21.7387 60.6623 20.9307L60.7244 20.7816L58.4747 14.7285H59.9787L61.3832 19.0663L62.8001 14.7285H64.2046L62.0171 20.8065C61.4329 22.4098 61.0227 22.9692 59.6307 22.9692ZM69.0148 12.5658V20.8189H67.6352V12.5658H69.0148ZM71.6747 16.6178L70.3945 16.5805C70.4815 15.3748 71.4634 14.5793 73.0668 14.5793C74.8317 14.5793 75.5899 15.2132 75.5899 16.9161C75.5899 17.3138 75.5651 18.333 75.5651 18.6686C75.5651 19.4517 75.6024 20.0855 75.6894 20.8189H74.3967L74.3594 20.0855C73.9741 20.6573 73.3775 20.968 72.3832 20.968C70.9786 20.968 70.1832 20.0234 70.1832 18.9793C70.1832 18.3827 70.4566 17.9353 70.8543 17.6618C71.4012 17.2889 72.147 17.1398 73.0792 17.0279L74.2227 16.9036V16.6923C74.2227 15.8596 73.7255 15.611 72.9922 15.611C72.2091 15.611 71.7368 15.9714 71.6747 16.6178ZM74.2724 18.2833V17.9104L73.1165 18.0347C72.0724 18.1466 71.6125 18.4324 71.6125 18.9918C71.6125 19.5138 72.0227 19.8867 72.6815 19.8867C73.4894 19.8867 74.2724 19.4268 74.2724 18.2833ZM77.0069 20.8189V12.5658H78.3865V15.4494C78.7718 14.9025 79.3436 14.6042 80.1639 14.6042C81.6803 14.6042 82.7741 15.7974 82.7741 17.7985C82.7741 19.75 81.6182 20.968 80.0645 20.968C79.269 20.968 78.6973 20.6324 78.3617 20.1974L78.3368 20.8189H77.0069ZM79.8781 15.7104C78.9707 15.7104 78.3244 16.4313 78.3244 17.7985C78.3244 19.1409 78.9583 19.8618 79.8781 19.8618C80.8351 19.8618 81.3571 19.0415 81.3571 17.7861C81.3571 16.5308 80.8475 15.7104 79.8781 15.7104ZM85.0735 20.8189H83.5074V19.2528H85.0735V20.8189Z" fill="white" style="mix-blend-mode:difference"/>
</svg>
