<svg width="73" height="36" viewBox="0 0 73 36" fill="none" xmlns="http://www.w3.org/2000/svg">
<path d="M19.7232 25.4163H18.3748C17.878 25.4163 17.1684 25.4163 16.3877 25.1324C15.1458 24.6711 14.2587 23.713 13.9038 22.4001C13.7264 21.7969 12.4135 17.0066 11.278 12.8195C10.8877 14.0614 10.4974 15.3388 10.1425 16.5098C9.11352 19.8098 8.51029 21.9034 8.36836 22.3292C7.37481 25.3453 4.749 25.3453 3.8619 25.3453H2.44255M2.37158 19.5969H3.22319C3.22319 19.5969 7.48126 5.79368 7.76513 4.97755C8.08449 4.09046 9.04255 1.99691 11.42 1.99691C13.9748 1.99691 14.8619 4.33884 15.0748 5.04852C15.4296 6.25497 18.1619 16.155 19.12 19.7034H19.7232M51.4813 25.4517C51.4813 25.4517 51.0555 25.4517 50.1684 25.4517C49.3167 25.4517 46.6555 25.4517 45.6619 22.4356C45.2716 21.2647 43.9232 16.8647 42.7167 12.9614C42.3264 14.4163 41.9006 15.9066 41.5458 17.255C40.6942 20.3421 40.1974 22.2227 40.0909 22.5776C39.5942 24.3517 38.1038 25.5582 36.3651 25.5582C34.5909 25.5582 33.0651 24.2808 32.6038 22.4711C32.4974 21.9743 31.2555 17.113 30.12 12.8905C29.7296 14.1324 29.3393 15.3743 29.02 16.5098C27.9909 19.8808 27.2458 21.9743 27.0684 22.4001C26.0748 25.4163 23.52 25.4163 22.5619 25.4163H21.2845M21.2845 19.7034H21.9232C22.2425 18.6034 22.8103 16.7582 23.4135 14.8421C25.0103 9.59046 26.1813 5.82917 26.4651 5.01304C27.3167 2.52917 28.9135 1.96143 30.12 1.96143C31.149 1.96143 32.9942 2.42272 33.7748 5.08401C34.0232 5.90014 35.2651 10.4421 36.3651 14.4872C37.4651 10.4066 38.7071 5.90014 38.9555 5.08401C39.7716 2.31626 41.7587 2.03239 42.6103 2.03239C43.6393 2.03239 45.449 2.42272 46.2651 4.97755C46.3006 5.08401 46.5135 5.79368 46.8329 6.8582C47.7909 10.0517 49.92 16.9711 50.8071 19.7388C51.3038 19.7388 51.4813 19.7388 51.4813 19.7388M62.5522 7.7453H58.578C58.0458 7.7453 57.5845 8.1711 57.5845 8.73885C57.5845 9.23562 57.9038 9.55497 58.2232 9.66143L62.5522 10.9743H62.5877C65.6748 11.9679 67.7329 14.8066 67.7329 18.0356C67.7329 22.1163 64.3974 25.4517 60.3167 25.4517H52.7942M52.8651 19.7034H60.3877C61.3103 19.7034 62.0909 18.9582 62.0909 18.0001C62.0909 17.255 61.6296 16.6163 60.9555 16.4034L56.6264 15.0905C56.5909 15.0905 56.5909 15.0905 56.5555 15.055C53.7877 14.1324 51.9425 11.5776 51.9425 8.66788C51.9425 4.97756 54.9587 1.96143 58.649 1.96143H62.6232" stroke="#101213" stroke-width="1.458"/>
<path d="M2.30078 22.5067H3.86207C4.71368 22.5067 5.31691 22.5067 5.67175 21.4422C6.02659 20.4132 9.92981 7.31965 10.4266 5.90029C10.675 5.19062 10.9588 4.83578 11.3847 4.83578C11.8105 4.83578 12.0943 5.15513 12.2717 5.82932C12.6621 7.2132 16.3879 20.7325 16.6363 21.6551C16.8847 22.5422 17.6653 22.5422 18.3395 22.5422H19.6879M51.4814 22.5067C51.4814 22.5067 51.1266 22.5067 50.2395 22.5067C49.3879 22.5067 48.7847 22.5067 48.4653 21.4422C47.7911 19.3487 43.7459 6.14868 43.6395 5.75836C43.3911 4.97771 43.1427 4.80029 42.7169 4.80029C42.2911 4.80029 42.0072 5.11965 41.8298 5.79384C41.4395 7.17771 37.6427 20.6971 37.3943 21.5842C37.2524 22.1164 36.8266 22.4713 36.4363 22.4713C36.0459 22.4713 35.6201 22.1164 35.4782 21.5842C35.1943 20.7325 31.4685 7.2132 31.0427 5.82932C30.8298 5.15513 30.6524 4.83578 30.1556 4.83578C29.6588 4.83578 29.4459 5.19062 29.1976 5.90029C28.7008 7.31965 24.7976 20.4487 24.4427 21.4777C24.0879 22.5422 23.5201 22.5422 22.6685 22.5422H21.2847M52.8653 22.5067H60.4588C62.9782 22.5067 65.0008 20.4842 65.0008 17.9648C65.0008 15.9422 63.6879 14.239 61.8427 13.6358L57.4782 12.3229C55.9524 11.8261 54.8524 10.3713 54.8524 8.66803C54.8524 6.539 56.5911 4.83578 58.6846 4.83578H62.5524" stroke="#101213" stroke-width="1.458" stroke-linejoin="round"/>
<path fill-rule="evenodd" clip-rule="evenodd" d="M1.9104 30.5265H2.15879L2.47814 29.7459H3.64911L3.96846 30.5265H4.21685L3.2233 27.9717H2.93943L1.9104 30.5265ZM3.04588 28.1846L3.54266 29.4975H2.54911L3.04588 28.1846ZM4.53621 30.5265H4.78459V28.3265L5.67169 30.5265H5.88459L6.77169 28.3265V30.5265H7.02008V27.9717H6.66524L5.77814 30.2072L4.89105 27.9717H4.53621C4.53621 27.9362 4.53621 30.5265 4.53621 30.5265ZM7.48137 29.6749C7.44588 30.3136 7.90717 30.562 8.5104 30.562C9.43298 30.562 9.50395 29.9943 9.50395 29.8168C9.50395 29.391 9.22008 29.2491 8.82975 29.1427L8.19105 29.0007C7.97814 28.9652 7.80072 28.8588 7.80072 28.6104C7.80072 28.2201 8.12008 28.1136 8.43943 28.1136C8.79427 28.1136 9.11363 28.3265 9.14911 28.7168H9.3975C9.3975 28.1846 8.97169 27.9362 8.43943 27.9362C7.72975 27.9362 7.55234 28.3975 7.55234 28.6459C7.55234 29.0362 7.83621 29.1781 8.12008 29.2491L8.68782 29.391C8.93621 29.462 9.22008 29.5685 9.22008 29.8523C9.22008 30.2427 8.79427 30.3846 8.54588 30.3846C8.08459 30.3846 7.69427 30.2072 7.69427 29.7104C7.72975 29.6749 7.48137 29.6749 7.48137 29.6749ZM9.68137 28.1491H10.5685V30.491H10.8169V28.1491H11.7039V27.9362H9.68137V28.1491ZM12.0233 30.5265H13.7975V30.3136H12.2717V29.3201H13.691V29.1072H12.2717V28.1846H13.7975V27.9717H12.0233C12.0233 27.9362 12.0233 30.5265 12.0233 30.5265ZM14.2588 30.5265H14.5072V29.391H15.4298C15.891 29.3556 15.9265 29.7814 15.9265 30.1362C15.9265 30.2427 15.9265 30.4201 15.9975 30.5265H16.2814C16.1749 30.3846 16.1749 30.0297 16.1749 29.8878C16.1749 29.5685 16.0685 29.3556 15.7136 29.3201C16.033 29.2491 16.2104 29.0007 16.2104 28.6814C16.2104 28.2201 15.8556 28.0072 15.4298 28.0072H14.2588V30.5265ZM14.5072 28.1491H15.4298C15.7846 28.1491 15.9975 28.362 15.9975 28.6459C15.9975 28.9652 15.7491 29.1427 15.4298 29.1427H14.5072V28.1491ZM16.991 28.1491H17.5233C18.2685 28.1491 18.5878 28.4685 18.5878 29.2136C18.5878 29.9943 18.2685 30.2781 17.5233 30.2781H16.991V28.1491ZM16.7427 30.5265H17.6298C18.4104 30.5265 18.8007 30.1007 18.8007 29.2491C18.8007 28.3975 18.4104 27.9717 17.6298 27.9717H16.7427V30.5265ZM19.0136 30.5265H19.262L19.5814 29.7459H20.7523L21.0717 30.5265H21.3201L20.3265 27.9717H20.0427L19.0136 30.5265ZM20.1491 28.1846L20.6459 29.4975H19.6523L20.1491 28.1846ZM21.6394 30.5265H21.8878V28.3265L22.7749 30.5265H22.9878L23.8749 28.3265V30.5265H24.1233V27.9717H23.7685L22.8814 30.2072L21.9943 27.9717H21.6394V30.5265ZM25.8265 30.5265H26.0749V27.9717H25.8265V30.5265ZM26.6781 30.5265H26.9265V28.362L28.4168 30.5265H28.7007V27.9717H28.4523V30.1362L26.962 27.9717H26.6781V30.5265ZM29.162 29.6749C29.1265 30.3136 29.5878 30.562 30.191 30.562C31.1136 30.562 31.1846 29.9943 31.1846 29.8168C31.1846 29.391 30.9007 29.2491 30.5104 29.1427L29.8717 29.0007C29.6588 28.9652 29.4814 28.8588 29.4814 28.6104C29.4814 28.2201 29.8007 28.1136 30.1201 28.1136C30.4749 28.1136 30.7943 28.3265 30.8298 28.7168H31.0781C31.0781 28.1846 30.6523 27.9362 30.1201 27.9362C29.4104 27.9362 29.233 28.3975 29.233 28.6459C29.233 29.0362 29.5168 29.1781 29.8007 29.2491L30.3685 29.391C30.6168 29.462 30.9007 29.5685 30.9007 29.8523C30.9007 30.2427 30.4749 30.3846 30.2265 30.3846C29.7652 30.3846 29.3749 30.2072 29.3749 29.7104C29.4104 29.6749 29.162 29.6749 29.162 29.6749ZM31.362 28.1491H32.2491V30.491H32.4975V28.1491H33.3846V27.9362H31.362V28.1491ZM33.7394 30.5265H33.9878V27.9717H33.7394V30.5265ZM34.3427 28.1491H35.2298V30.491H35.4781V28.1491H36.3652V27.9362H34.3427V28.1491ZM36.6846 29.6039C36.6846 30.1362 36.9685 30.562 37.6781 30.562C38.3878 30.562 38.6717 30.1007 38.6717 29.6039V27.9717H38.4233V29.533C38.4233 30.1362 38.1394 30.3491 37.6781 30.3491C37.2168 30.3491 36.933 30.1362 36.933 29.533V27.9362H36.6846V29.6039ZM38.9556 28.1491H39.8427V30.491H40.091V28.1491H40.9781V27.9362H38.9556V28.1491ZM41.333 30.5265H43.1072V30.3136H41.5814V29.3201H43.0007V29.1072H41.5814V28.1846H43.1072V27.9717H41.333C41.333 27.9362 41.333 30.5265 41.333 30.5265ZM44.633 30.5265H44.8814V29.3201H46.1233V29.1072H44.8814V28.1846H46.2652V27.9717H44.633C44.633 27.9362 44.633 30.5265 44.633 30.5265ZM46.5136 29.2136C46.5136 29.9233 46.9039 30.562 47.7201 30.562C48.5362 30.562 48.9265 29.9233 48.9265 29.2136C48.9265 28.5039 48.5362 27.8652 47.7201 27.8652C46.9039 27.9007 46.5136 28.5394 46.5136 29.2136ZM46.762 29.2136C46.762 28.6459 47.0459 28.0781 47.7201 28.0781C48.3943 28.0781 48.6781 28.6459 48.6781 29.2136C48.6781 29.7814 48.3943 30.3491 47.7201 30.3491C47.0459 30.3491 46.762 29.7814 46.762 29.2136ZM49.3878 30.5265H49.6362V29.391H50.5588C51.0201 29.3556 51.0556 29.7814 51.0556 30.1362C51.0556 30.2427 51.0556 30.4201 51.1265 30.5265H51.4104C51.3039 30.3846 51.3039 30.0297 51.3039 29.8878C51.3039 29.5685 51.1975 29.3556 50.8427 29.3201C51.162 29.2491 51.3394 29.0007 51.3394 28.6814C51.3394 28.2201 50.9846 28.0072 50.5588 28.0072H49.3878V30.5265ZM49.6362 28.1491H50.5588C50.9136 28.1491 51.1265 28.362 51.1265 28.6459C51.1265 28.9652 50.8781 29.1427 50.5588 29.1427H49.6362V28.1491Z" fill="#101213"/>
<path fill-rule="evenodd" clip-rule="evenodd" d="M3.11685 32.3003L3.50717 33.4003H2.72653L3.11685 32.3003ZM1.9104 34.3939H2.37169L2.62008 33.7197H3.64911L3.8975 34.3939H4.39427L3.36524 31.839H2.86846L1.9104 34.3939ZM5.03298 32.2294H5.45879C6.16847 32.2294 6.3104 32.6197 6.3104 33.1519C6.3104 33.6487 6.16847 34.0745 5.45879 34.0745H5.03298V32.2294ZM4.57169 34.3939H5.63621C6.41685 34.3939 6.77169 33.8261 6.77169 33.1165C6.77169 32.4068 6.41685 31.839 5.63621 31.839H4.57169V34.3939ZM7.72976 34.3939H8.22653L9.11363 31.839H8.65234L7.97814 33.8616L7.33943 31.839H6.87814L7.72976 34.3939ZM10.0717 32.3003L10.462 33.4003H9.68137L10.0717 32.3003ZM8.86524 34.3939H9.32653L9.57492 33.7197H10.6039L10.8523 34.3939H11.3491L10.3556 31.839H9.89427L8.86524 34.3939ZM11.5265 34.3939H11.9523V32.5132L13.1233 34.3939H13.5846V31.839H13.1588V33.7197L11.9878 31.839H11.5265V34.3939ZM16.3169 32.6552C16.2459 32.0874 15.8201 31.7681 15.2169 31.7681C14.4362 31.7681 13.9749 32.3713 13.9749 33.1165C13.9749 33.8616 14.4362 34.4648 15.2169 34.4648C15.8556 34.4648 16.2814 34.039 16.3169 33.4358H15.891C15.8556 33.8261 15.6427 34.11 15.2523 34.11C14.7201 34.11 14.4717 33.6132 14.4717 33.1165C14.4717 32.6197 14.6846 32.1584 15.2523 32.1584C15.6427 32.1584 15.8201 32.3713 15.891 32.6552H16.3169ZM16.7427 34.3939H18.6233V34.0035H17.2039V33.2584H18.4814V32.9035H17.2039V32.2294H18.5878V31.839H16.7427V34.3939ZM19.4394 32.2294H19.8652C20.5749 32.2294 20.7169 32.6197 20.7169 33.1519C20.7169 33.6487 20.5749 34.0745 19.8652 34.0745H19.4394V32.2294ZM19.0136 34.3939H20.0781C20.8588 34.3939 21.2136 33.8261 21.2136 33.1165C21.2136 32.4068 20.8588 31.839 20.0781 31.839H19.0136V34.3939ZM22.562 34.3939H22.9878V32.4068L23.6975 34.3939H24.0523L24.762 32.4068V34.3939H25.1878V31.839H24.5491L23.8749 33.8261L23.1652 31.839H22.5265V34.3939H22.562ZM25.7556 34.3939H27.6362V34.0035H26.2169V33.2584H27.4943V32.9035H26.2169V32.2294H27.6007V31.839H25.7556V34.3939ZM27.7781 32.2294H28.5943V34.3939H29.0556V32.2294H29.8717V31.839H27.8136C27.7781 31.839 27.7781 32.2294 27.7781 32.2294ZM30.6169 32.2294H31.362C31.6104 32.2294 31.8233 32.3003 31.8233 32.6197C31.8233 32.9035 31.6814 33.0455 31.3975 33.0455H30.6523V32.2294H30.6169ZM30.1556 34.3939H30.6169V33.3294H31.291C31.7169 33.3294 31.7878 33.5423 31.7878 34.0035C31.7878 34.1455 31.7878 34.2519 31.8588 34.3939H32.3556C32.2491 34.2874 32.2136 34.0035 32.2136 33.7197C32.2136 33.3294 32.0007 33.1874 31.8233 33.1874C31.8943 33.1519 32.2491 33.0455 32.2491 32.5487C32.2491 32.1229 31.9652 31.8745 31.3975 31.8745H30.191L30.1556 34.3939ZM33.7749 31.8035C32.9943 31.8035 32.533 32.4068 32.533 33.1519C32.533 33.8971 32.9943 34.5003 33.7749 34.5003C34.5556 34.5003 35.0169 33.8971 35.0169 33.1519C34.9814 32.4068 34.5556 31.8035 33.7749 31.8035ZM33.7749 32.1584C34.3072 32.1584 34.5556 32.6552 34.5556 33.1165C34.5556 33.6132 34.3427 34.11 33.7749 34.11C33.2427 34.11 32.9943 33.6132 32.9943 33.1165C32.9943 32.6197 33.2072 32.1584 33.7749 32.1584ZM35.8685 32.2294H36.5427C36.791 32.2294 36.9685 32.3003 36.9685 32.6552C36.9685 32.9745 36.7201 33.081 36.5072 33.081H35.8685V32.2294ZM35.4072 34.3939H35.8685V33.4358H36.5427C37.2878 33.4358 37.4298 32.9745 37.4298 32.6552C37.4298 32.3358 37.2878 31.8745 36.5427 31.8745H35.4072V34.3939ZM38.8846 31.8035C38.104 31.8035 37.6427 32.4068 37.6427 33.1519C37.6427 33.8971 38.104 34.5003 38.8846 34.5003C39.6652 34.5003 40.1265 33.8971 40.1265 33.1519C40.1265 32.4068 39.6652 31.8035 38.8846 31.8035ZM38.8846 32.1584C39.4169 32.1584 39.6652 32.6552 39.6652 33.1165C39.6652 33.6132 39.4523 34.11 38.8846 34.11C38.3169 34.11 38.104 33.6132 38.104 33.1165C38.104 32.6197 38.3523 32.1584 38.8846 32.1584ZM40.5169 34.3939H42.2556V34.0035H40.9781V31.839H40.5169V34.3939ZM42.5749 34.3939H43.0362V31.839H42.5749V34.3939ZM43.3201 32.2294H44.1362V34.3939H44.5975V32.2294H45.4136V31.839H43.3556C43.3201 31.839 43.3201 32.2294 43.3201 32.2294ZM46.3007 32.3003L46.691 33.4003H45.9104L46.3007 32.3003ZM45.0943 34.3939H45.5556L45.804 33.7197H46.833L47.0814 34.3939H47.5781L46.5846 31.839H46.1233L45.0943 34.3939ZM47.7556 34.3939H48.1814V32.5132L49.3523 34.3939H49.8136V31.839H49.3878V33.7197L48.2169 31.839H47.7556V34.3939ZM51.1975 33.5423C51.1975 34.181 51.6943 34.4648 52.262 34.4648C52.7588 34.4648 53.291 34.2519 53.291 33.6487C53.291 33.4003 53.1136 33.081 52.7943 33.01C52.6523 32.9745 52.0846 32.8326 52.0491 32.7971C51.8717 32.7616 51.7298 32.6552 51.7298 32.4777C51.7298 32.2294 51.9781 32.1584 52.1911 32.1584C52.5104 32.1584 52.7233 32.2648 52.7588 32.6197H53.2201C53.2201 32.0874 52.7588 31.8035 52.2265 31.8035C51.7652 31.8035 51.304 32.0519 51.304 32.5487C51.304 32.7971 51.4459 33.081 51.8717 33.1874C52.2265 33.2939 52.4394 33.3294 52.6523 33.4003C52.7588 33.4358 52.8652 33.5068 52.8652 33.7197C52.8652 33.8971 52.7233 34.11 52.333 34.11C51.9781 34.11 51.6943 33.9681 51.6943 33.5777C51.6588 33.5423 51.1975 33.5423 51.1975 33.5423ZM54.7814 31.8035C54.0007 31.8035 53.5394 32.4068 53.5394 33.1519C53.5394 33.8971 54.0007 34.5003 54.7814 34.5003C55.562 34.5003 56.0233 33.8971 56.0233 33.1519C55.9878 32.4068 55.5265 31.8035 54.7814 31.8035ZM54.7814 32.1584C55.3136 32.1584 55.562 32.6552 55.562 33.1165C55.562 33.6132 55.3491 34.11 54.7814 34.11C54.2136 34.11 54.0007 33.6132 54.0007 33.1165C54.0007 32.6197 54.2136 32.1584 54.7814 32.1584ZM56.4136 34.3939H58.1523V34.0035H56.8394V31.839H56.3781V34.3939H56.4136ZM58.4362 33.4713C58.4362 34.11 58.862 34.4648 59.5007 34.4648C60.1394 34.4648 60.5652 34.1455 60.5652 33.4713V31.839H60.104V33.3294C60.104 33.6842 60.0685 34.0745 59.5007 34.0745C58.933 34.0745 58.8975 33.6842 58.8975 33.3294V31.839H58.4362V33.4713ZM60.8136 32.2294H61.6298V34.3939H62.091V32.2294H62.9072V31.839H60.8491L60.8136 32.2294ZM63.1911 34.3939H63.6523V31.839H63.1911V34.3939ZM65.2491 31.8035C64.4685 31.8035 64.0072 32.4068 64.0072 33.1519C64.0072 33.8971 64.4685 34.5003 65.2491 34.5003C66.0298 34.5003 66.4911 33.8971 66.4911 33.1519C66.4911 32.4068 66.0298 31.8035 65.2491 31.8035ZM65.2491 32.1584C65.7814 32.1584 66.0298 32.6552 66.0298 33.1165C66.0298 33.6132 65.8169 34.11 65.2491 34.11C64.7169 34.11 64.4685 33.6132 64.4685 33.1165C64.504 32.6197 64.7169 32.1584 65.2491 32.1584ZM66.8814 34.3939H67.3072V32.5132L68.4781 34.3939H68.9394V31.839H68.5136V33.7197L67.3427 31.839H66.8814V34.3939ZM69.3298 33.5423C69.3298 34.181 69.8265 34.4648 70.3943 34.4648C70.8911 34.4648 71.4233 34.2519 71.4233 33.6487C71.4233 33.4003 71.2459 33.081 70.9265 33.01C70.7846 32.9745 70.2169 32.8326 70.1814 32.7971C70.004 32.7616 69.862 32.6552 69.862 32.4777C69.862 32.2294 70.1104 32.1584 70.3233 32.1584C70.6427 32.1584 70.8556 32.2648 70.8911 32.6197H71.3523C71.3523 32.0874 70.8911 31.8035 70.3588 31.8035C69.8975 31.8035 69.4362 32.0519 69.4362 32.5487C69.4362 32.7971 69.5781 33.081 70.004 33.1874C70.3588 33.2939 70.5717 33.3294 70.7846 33.4003C70.8911 33.4358 70.9975 33.5068 70.9975 33.7197C70.9975 33.8971 70.8556 34.11 70.4652 34.11C70.1104 34.11 69.8265 33.9681 69.8265 33.5777C69.7911 33.5423 69.3298 33.5423 69.3298 33.5423Z" fill="#101213"/>
</svg>
