<svg width="248" height="36" viewBox="0 0 248 36" fill="none" xmlns="http://www.w3.org/2000/svg">
<g clip-path="url(#clip0_209_737)">
<mask id="mask0_209_737" style="mask-type:luminance" maskUnits="userSpaceOnUse" x="0" y="0" width="248" height="36">
<path d="M247.091 0H0V36H247.091V0Z" fill="white"/>
</mask>
<g mask="url(#mask0_209_737)">
<path fill-rule="evenodd" clip-rule="evenodd" d="M48.5819 30.325H42.2068V10.251H48.5819V30.325Z" fill="#101213"/>
<path d="M27.4768 0.85498H21.1017V30.3254H27.4768V0.85498Z" fill="#101213"/>
<path fill-rule="evenodd" clip-rule="evenodd" d="M6.81335 30.3254H0.438232V0.85498H6.81335V30.3254Z" fill="#101213"/>
<path d="M17.1467 0.85498H10.7716V20.929H17.1467V0.85498Z" fill="#101213"/>
<path d="M38.031 0.85498H31.6559V6.62093H38.031V0.85498Z" fill="#101213"/>
<path d="M38.031 10.251H31.6559V30.325H38.031V10.251Z" fill="#101213"/>
<path d="M58.914 0.85498H42.2068V6.62093H58.914V0.85498Z" fill="#101213"/>
<path d="M99.8799 0.628906H93.8356V14.047H100.383V6.81929H110.962V0.628906H99.8799Z" fill="#101213"/>
<path d="M104.918 30.8111H110.962V17.3931H104.415V24.614H93.8356V30.8045H104.918V30.8111Z" fill="#101213"/>
<path d="M120.54 0.628906H114.496V14.047H121.043V6.81929H131.622V0.628906H120.54Z" fill="#101213"/>
<path d="M120.54 30.8111H114.496V17.3931H121.043V24.614H131.622V30.8045H120.54V30.8111Z" fill="#101213"/>
<path d="M141.197 30.8111H135.153V17.3931H141.7V24.614H152.28V30.8045H141.197V30.8111Z" fill="#101213"/>
<path d="M170.627 12.7285C170.745 12.9159 170.895 13.0631 171.077 13.1702C171.253 13.284 171.47 13.3576 171.704 13.3978C171.946 13.4379 172.201 13.458 172.469 13.458C173.089 13.458 173.534 13.3643 173.808 13.1769C174.083 12.9895 174.213 12.7084 174.213 12.3404C174.213 12.0526 174.128 11.805 173.958 11.6042C173.789 11.4034 173.443 11.2562 172.92 11.1692C172.246 11.0488 171.652 10.9283 171.142 10.8212C170.633 10.7074 170.202 10.5535 169.855 10.3594C169.509 10.1654 169.247 9.91106 169.071 9.60991C168.895 9.30206 168.81 8.88714 168.81 8.36514C168.81 7.96361 168.895 7.59553 169.071 7.2676C169.247 6.93969 169.49 6.65861 169.797 6.43106C170.11 6.20352 170.476 6.02953 170.908 5.90238C171.339 5.78191 171.809 5.72168 172.319 5.72168C172.972 5.72168 173.514 5.78861 173.952 5.92245C174.39 6.0563 174.743 6.23699 175.011 6.47122C175.286 6.70544 175.488 6.97314 175.631 7.27429C175.775 7.57545 175.88 7.88999 175.958 8.22461L174.293 8.45884C174.162 8.02383 173.965 7.70261 173.697 7.48845C173.43 7.27429 172.984 7.16723 172.364 7.16723C172.004 7.16723 171.71 7.20069 171.483 7.2676C171.253 7.33453 171.071 7.41484 170.933 7.52191C170.796 7.6223 170.704 7.73606 170.659 7.85653C170.607 7.977 170.586 8.10414 170.586 8.22461C170.586 8.41199 170.607 8.5726 170.652 8.69307C170.698 8.81352 170.777 8.91391 170.888 8.99423C170.998 9.07452 171.155 9.14145 171.352 9.19499C171.547 9.24853 171.789 9.30875 172.083 9.36229L173.141 9.54969C173.711 9.65006 174.181 9.77723 174.553 9.93114C174.926 10.0851 175.226 10.2791 175.455 10.5067C175.677 10.7342 175.835 11.0019 175.919 11.3031C176.005 11.6042 176.05 11.9388 176.05 12.3069C176.05 13.0966 175.756 13.7391 175.168 14.2209C174.58 14.7028 173.684 14.9504 172.489 14.9504C171.998 14.9504 171.528 14.9035 171.077 14.8098C170.627 14.7161 170.221 14.5555 169.861 14.3347C169.503 14.1138 169.209 13.8127 168.986 13.4379C168.765 13.0631 168.634 12.5947 168.6 12.0258H170.378C170.43 12.3136 170.509 12.5478 170.627 12.7285Z" fill="#101213"/>
<path d="M184.204 14.201C183.601 14.6963 182.745 14.9439 181.621 14.9439C180.27 14.9439 179.244 14.5423 178.545 13.746C177.846 12.9496 177.492 11.8253 177.492 10.373C177.492 9.6235 177.59 8.96097 177.792 8.38542C177.996 7.80988 178.277 7.31465 178.642 6.9198C179.008 6.52496 179.44 6.2238 179.95 6.01635C180.452 5.80889 181.014 5.7085 181.621 5.7085C182.275 5.7085 182.844 5.80889 183.32 6.01635C183.798 6.2238 184.197 6.51157 184.511 6.88635C184.824 7.26111 185.06 7.7028 185.216 8.2248C185.367 8.74012 185.444 9.32234 185.444 9.95812V10.7947H179.354C179.375 11.5844 179.57 12.2268 179.943 12.722C180.315 13.2106 180.87 13.4582 181.621 13.4582C182.211 13.4582 182.649 13.3377 182.942 13.1035C183.236 12.8693 183.432 12.5347 183.53 12.0997H185.328C185.178 13.0098 184.798 13.7058 184.204 14.201ZM183.138 7.7898C182.812 7.37489 182.288 7.17412 181.57 7.17412C180.883 7.17412 180.362 7.38158 180.002 7.80319C179.641 8.2248 179.433 8.78026 179.381 9.48297H183.629C183.629 8.76688 183.464 8.20474 183.138 7.7898Z" fill="#101213"/>
<path d="M189.052 7.25456C189.431 6.71918 189.863 6.33101 190.333 6.0834C190.803 5.83578 191.313 5.71533 191.862 5.71533C193.756 5.71533 194.704 6.7861 194.704 8.92763V14.683H192.842V9.22879C192.842 8.5261 192.718 8.03087 192.463 7.74979C192.214 7.46871 191.843 7.32149 191.352 7.32149C191.025 7.32149 190.725 7.38171 190.444 7.49548C190.169 7.61594 189.927 7.76987 189.732 7.97063C189.535 8.1714 189.378 8.40563 189.267 8.66663C189.157 8.92763 189.097 9.20201 189.097 9.49648V14.683H187.254V5.98303H189.052V7.25456Z" fill="#101213"/>
<path d="M198.254 12.7285C198.372 12.9159 198.522 13.0631 198.705 13.1702C198.882 13.284 199.097 13.3576 199.333 13.3978C199.573 13.4379 199.829 13.458 200.097 13.458C200.719 13.458 201.163 13.3643 201.437 13.1769C201.712 12.9895 201.841 12.7084 201.841 12.3404C201.841 12.0526 201.757 11.805 201.587 11.6042C201.416 11.4034 201.071 11.2562 200.547 11.1692C199.875 11.0488 199.28 10.9283 198.771 10.8212C198.261 10.7074 197.829 10.5535 197.484 10.3594C197.136 10.1654 196.875 9.91106 196.699 9.60991C196.523 9.30206 196.437 8.88714 196.437 8.36514C196.437 7.96361 196.523 7.59553 196.699 7.2676C196.875 6.93969 197.117 6.65861 197.424 6.43106C197.739 6.20352 198.104 6.02953 198.535 5.90238C198.966 5.78191 199.438 5.72168 199.947 5.72168C200.601 5.72168 201.143 5.78861 201.581 5.92245C202.019 6.0563 202.371 6.23699 202.639 6.47122C202.913 6.70544 203.115 6.97314 203.259 7.27429C203.404 7.57545 203.508 7.88999 203.587 8.22461L201.92 8.45884C201.789 8.02383 201.594 7.70261 201.326 7.48845C201.058 7.27429 200.614 7.16723 199.992 7.16723C199.633 7.16723 199.339 7.20069 199.11 7.2676C198.882 7.33453 198.698 7.41484 198.561 7.52191C198.424 7.6223 198.333 7.73606 198.286 7.85653C198.235 7.977 198.215 8.10414 198.215 8.22461C198.215 8.41199 198.235 8.5726 198.28 8.69307C198.327 8.81352 198.404 8.91391 198.516 8.99423C198.627 9.07452 198.784 9.14145 198.979 9.19499C199.176 9.24853 199.417 9.30875 199.711 9.36229L200.77 9.54969C201.339 9.65006 201.809 9.77723 202.182 9.93114C202.555 10.0851 202.855 10.2791 203.083 10.5067C203.306 10.7342 203.462 11.0019 203.548 11.3031C203.632 11.6042 203.677 11.9388 203.677 12.3069C203.677 13.0966 203.383 13.7391 202.795 14.2209C202.208 14.7028 201.313 14.9504 200.116 14.9504C199.627 14.9504 199.157 14.9035 198.705 14.8098C198.254 14.7161 197.849 14.5555 197.49 14.3347C197.13 14.1138 196.836 13.8127 196.615 13.4379C196.392 13.0631 196.261 12.5947 196.229 12.0258H198.005C198.059 12.3136 198.13 12.5478 198.254 12.7285Z" fill="#101213"/>
<path d="M211.824 14.201C211.224 14.6963 210.368 14.9439 209.244 14.9439C207.89 14.9439 206.865 14.5423 206.166 13.746C205.466 12.9496 205.114 11.8253 205.114 10.373C205.114 9.6235 205.213 8.96097 205.415 8.38542C205.617 7.80988 205.898 7.31465 206.264 6.9198C206.631 6.52496 207.062 6.2238 207.571 6.01635C208.075 5.80889 208.637 5.7085 209.244 5.7085C209.898 5.7085 210.466 5.80889 210.943 6.01635C211.419 6.2238 211.818 6.51157 212.131 6.88635C212.446 7.26111 212.68 7.7028 212.837 8.2248C212.987 8.74012 213.066 9.32234 213.066 9.95812V10.7947H206.976C206.996 11.5844 207.191 12.2268 207.564 12.722C207.937 13.2106 208.493 13.4582 209.244 13.4582C209.832 13.4582 210.269 13.3377 210.563 13.1035C210.857 12.8693 211.054 12.5347 211.151 12.0997H212.948C212.798 13.0098 212.425 13.7058 211.824 14.201ZM210.767 7.7898C210.439 7.37489 209.917 7.17412 209.199 7.17412C208.512 7.17412 207.989 7.38158 207.63 7.80319C207.27 8.2248 207.062 8.78026 207.009 9.48297H211.256C211.256 8.76688 211.093 8.20474 210.767 7.7898Z" fill="#101213"/>
<path d="M218.869 14.5157C218.41 14.77 217.855 14.9039 217.202 14.9039C216.797 14.9039 216.424 14.8503 216.078 14.7432C215.731 14.6362 215.424 14.4756 215.169 14.2681C214.916 14.0606 214.712 13.7863 214.568 13.4583C214.418 13.1304 214.347 12.7423 214.347 12.2939C214.347 11.6916 214.478 11.203 214.738 10.8282C215 10.4535 215.34 10.159 215.759 9.95157C216.177 9.74409 216.647 9.59018 217.17 9.50986C217.692 9.42957 218.215 9.37603 218.738 9.34925L219.991 9.28233V8.91424C219.991 8.25841 219.835 7.80333 219.528 7.54903C219.221 7.29472 218.809 7.17425 218.314 7.17425C217.739 7.17425 217.307 7.27464 217.033 7.47541C216.758 7.67617 216.574 7.96394 216.484 8.34541L214.785 8.15801C214.935 7.3081 215.313 6.69241 215.909 6.30424C216.51 5.9161 217.327 5.71533 218.372 5.71533C219.045 5.71533 219.607 5.80232 220.045 5.98303C220.482 6.16371 220.835 6.40463 221.096 6.71918C221.358 7.03372 221.54 7.40179 221.645 7.8301C221.75 8.25841 221.802 8.73356 221.802 9.24217V14.6763H220.025V13.5386C219.71 13.9335 219.326 14.2547 218.869 14.5157ZM217.451 10.8015C217.104 10.8885 216.842 11.0023 216.66 11.1428C216.477 11.2833 216.353 11.4439 216.293 11.6246C216.235 11.812 216.203 12.0061 216.203 12.2203C216.203 12.6017 216.321 12.8962 216.555 13.1036C216.791 13.3111 217.136 13.4182 217.595 13.4182C218.41 13.4182 219.013 13.204 219.404 12.7824C219.796 12.3608 219.991 11.7853 219.991 11.0625V10.5606L218.796 10.6141C218.247 10.6476 217.797 10.7145 217.451 10.8015Z" fill="#101213"/>
<path d="M225.699 7.12078C226.04 6.66569 226.424 6.3177 226.87 6.07678C227.314 5.83584 227.823 5.71539 228.41 5.71539C229.019 5.71539 229.547 5.82915 229.993 6.05001C230.437 6.27085 230.809 6.58539 231.103 6.98692C231.398 7.38846 231.619 7.87032 231.763 8.43246C231.907 8.99461 231.986 9.617 231.986 10.2996C231.986 11.0157 231.9 11.6582 231.724 12.2337C231.548 12.8092 231.3 13.2978 230.973 13.6993C230.646 14.1009 230.253 14.4087 229.796 14.6295C229.339 14.8504 228.829 14.9575 228.26 14.9575C227.752 14.9575 227.273 14.8571 226.842 14.6563C226.405 14.4555 226.014 14.1209 225.654 13.6525V14.6898H223.856V2.7373H225.699V7.12078ZM225.889 11.9861C226.014 12.3408 226.177 12.6285 226.379 12.8427C226.582 13.0569 226.81 13.1974 227.072 13.2777C227.333 13.358 227.608 13.3915 227.889 13.3915C228.196 13.3915 228.477 13.3379 228.738 13.2242C229 13.1104 229.228 12.9364 229.425 12.6955C229.62 12.4545 229.77 12.14 229.882 11.7519C229.993 11.3637 230.045 10.8818 230.045 10.313C230.045 9.76423 229.987 9.30246 229.875 8.91432C229.757 8.52615 229.614 8.2183 229.425 7.97738C229.234 7.73646 229.019 7.56247 228.764 7.44869C228.509 7.33493 228.247 7.28139 227.973 7.28139C227.567 7.28139 227.222 7.34832 226.934 7.48215C226.647 7.61601 226.411 7.80339 226.222 8.051C226.04 8.29862 225.902 8.58639 225.817 8.9277C225.733 9.269 225.686 9.64377 225.686 10.0587V10.4736V10.6075C225.692 11.1763 225.759 11.6314 225.889 11.9861Z" fill="#101213"/>
<path d="M235.696 14.6831H233.833V2.7373H235.696V14.6831Z" fill="#101213"/>
<path d="M244.257 14.201C243.656 14.6963 242.8 14.9439 241.676 14.9439C240.323 14.9439 239.297 14.5423 238.598 13.746C237.898 12.9496 237.546 11.8253 237.546 10.373C237.546 9.6235 237.645 8.96097 237.847 8.38542C238.049 7.80988 238.33 7.31465 238.696 6.9198C239.063 6.52496 239.494 6.2238 240.003 6.01635C240.507 5.80889 241.069 5.7085 241.676 5.7085C242.33 5.7085 242.898 5.80889 243.375 6.01635C243.851 6.2238 244.25 6.51157 244.563 6.88635C244.878 7.26111 245.113 7.7028 245.269 8.2248C245.419 8.74012 245.499 9.32234 245.499 9.95812V10.7947H239.408C239.428 11.5844 239.625 12.2268 239.996 12.722C240.369 13.2106 240.925 13.4582 241.676 13.4582C242.264 13.4582 242.701 13.3377 242.995 13.1035C243.289 12.8693 243.486 12.5347 243.583 12.0997H245.381C245.23 13.0098 244.851 13.7058 244.257 14.201ZM243.192 7.7898C242.864 7.37489 242.343 7.17412 241.624 7.17412C240.938 7.17412 240.415 7.38158 240.056 7.80319C239.696 8.2248 239.488 8.78026 239.434 9.48297H243.682C243.682 8.76688 243.519 8.20474 243.192 7.7898Z" fill="#101213"/>
<path d="M175.522 30.7986C174.908 31.3876 174.026 31.6753 172.883 31.6753C172.196 31.6753 171.602 31.5682 171.092 31.3473C170.589 31.1333 170.165 30.8186 169.824 30.4172C169.485 30.0157 169.236 29.5337 169.073 28.9717C168.91 28.4094 168.824 27.7804 168.824 27.0911C168.824 26.4017 168.916 25.766 169.099 25.1905C169.281 24.615 169.556 24.1264 169.909 23.7181C170.262 23.31 170.693 22.9953 171.21 22.7746C171.72 22.5537 172.301 22.4399 172.954 22.4399C173.556 22.4399 174.058 22.5203 174.47 22.6808C174.882 22.8415 175.228 23.0622 175.502 23.33C175.777 23.6044 175.987 23.9189 176.137 24.2737C176.287 24.6283 176.398 25.0031 176.463 25.3913L174.614 25.6723C174.528 25.1838 174.359 24.7755 174.116 24.4543C173.869 24.1331 173.464 23.9659 172.883 23.9659C172.471 23.9659 172.124 24.0527 171.849 24.2334C171.576 24.4142 171.36 24.6417 171.197 24.9295C171.033 25.2172 170.916 25.5384 170.843 25.9066C170.772 26.2746 170.74 26.6493 170.74 27.0242C170.74 27.4592 170.778 27.8674 170.849 28.2422C170.929 28.6236 171.046 28.9448 171.21 29.2192C171.373 29.4937 171.589 29.7079 171.864 29.8684C172.137 30.0291 172.464 30.1093 172.857 30.1093C173.425 30.1093 173.85 29.9554 174.144 29.6475C174.438 29.3397 174.62 28.9047 174.699 28.3359H176.574C176.502 29.4066 176.137 30.2164 175.522 30.7986Z" fill="#101213"/>
<path d="M180.254 21.3613H178.325V19.4741H180.254V21.3613ZM180.22 31.4132H178.358V22.7131H180.22V31.4132Z" fill="#101213"/>
<path d="M181.528 22.7139H182.867V20.3716H184.709V22.7139H186.814V24.2197H184.709V28.7704C184.709 29.2189 184.801 29.5401 184.977 29.7409C185.16 29.9417 185.422 30.042 185.769 30.042C185.951 30.042 186.127 30.0286 186.297 30.0085C186.466 29.9885 186.631 29.9482 186.794 29.8947L187.069 31.3135C186.546 31.4943 185.977 31.5812 185.37 31.5812C184.435 31.5812 183.782 31.3336 183.409 30.8384C183.036 30.3431 182.854 29.6003 182.854 28.6031V24.2197H181.515V22.7139H181.528Z" fill="#101213"/>
<path d="M189.677 33.1004C190.003 33.1004 190.258 33.02 190.441 32.8593C190.623 32.6988 190.801 32.3908 190.964 31.9492L191.271 31.1127L187.697 22.7139H189.853L192.185 28.9846L194.322 22.7139H196.348L192.97 31.4941C192.773 32.0094 192.59 32.4578 192.414 32.8459C192.238 33.234 192.041 33.5687 191.826 33.8297C191.61 34.0974 191.348 34.2982 191.048 34.4387C190.748 34.5793 190.383 34.6462 189.945 34.6462C189.664 34.6462 189.402 34.6261 189.16 34.586C188.918 34.5458 188.663 34.4855 188.396 34.3919L188.735 32.9397C189.023 33.0534 189.33 33.1004 189.677 33.1004Z" fill="#101213"/>
<path d="M203.071 31.4145H201.209V19.4688H203.071V31.4145Z" fill="#101213"/>
<path d="M209.2 31.2462C208.743 31.5005 208.188 31.6343 207.534 31.6343C207.13 31.6343 206.757 31.5808 206.411 31.4738C206.064 31.3666 205.757 31.2061 205.502 30.9986C205.247 30.7911 205.045 30.5167 204.901 30.1887C204.751 29.8608 204.678 29.4727 204.678 29.0243C204.678 28.422 204.809 27.9335 205.071 27.5588C205.333 27.1839 205.672 26.8895 206.09 26.682C206.508 26.4745 206.98 26.3207 207.501 26.2404C208.025 26.16 208.548 26.1065 209.07 26.0797L210.324 26.0127V25.6447C210.324 24.9889 210.168 24.5338 209.861 24.2795C209.554 24.0252 209.142 23.9048 208.645 23.9048C208.07 23.9048 207.639 24.0051 207.364 24.2059C207.09 24.4067 206.907 24.6945 206.815 25.0759L205.116 24.8886C205.266 24.0386 205.646 23.4229 206.24 23.0347C206.843 22.6466 207.658 22.4458 208.705 22.4458C209.376 22.4458 209.938 22.5329 210.378 22.7135C210.815 22.8942 211.167 23.135 211.429 23.4497C211.691 23.7642 211.873 24.1322 211.978 24.5606C212.083 24.9889 212.135 25.4641 212.135 25.9727V31.4069H210.357V30.2691C210.043 30.6639 209.657 30.9852 209.2 31.2462ZM207.782 27.5319C207.437 27.619 207.175 27.7327 206.993 27.8733C206.809 28.0139 206.684 28.1744 206.626 28.355C206.568 28.5426 206.534 28.7366 206.534 28.9507C206.534 29.3321 206.652 29.6267 206.888 29.8341C207.124 30.0416 207.469 30.1487 207.926 30.1487C208.743 30.1487 209.344 29.9345 209.737 29.5129C210.129 29.0912 210.324 28.5157 210.324 27.7929V27.2911L209.129 27.3446C208.58 27.378 208.13 27.4449 207.782 27.5319Z" fill="#101213"/>
<path d="M216.028 23.8522C216.368 23.3972 216.753 23.0491 217.198 22.8082C217.642 22.5672 218.152 22.4468 218.74 22.4468C219.347 22.4468 219.877 22.5605 220.321 22.7814C220.765 23.0023 221.138 23.3168 221.432 23.7184C221.726 24.1198 221.949 24.6017 222.093 25.1638C222.236 25.726 222.314 26.3484 222.314 27.031C222.314 27.7471 222.23 28.3896 222.054 28.9651C221.876 29.5406 221.629 30.0292 221.301 30.4308C220.975 30.8323 220.583 31.1401 220.126 31.3609C219.668 31.5818 219.158 31.6888 218.59 31.6888C218.079 31.6888 217.603 31.5885 217.172 31.3877C216.734 31.1869 216.342 30.8523 215.983 30.3838V31.4212H214.186V19.4688H216.028V23.8522ZM216.217 28.7175C216.342 29.0722 216.505 29.3599 216.708 29.5741C216.91 29.7883 217.139 29.9287 217.401 30.0091C217.663 30.0894 217.936 30.1228 218.217 30.1228C218.525 30.1228 218.806 30.0693 219.066 29.9555C219.328 29.8418 219.557 29.6677 219.752 29.4268C219.95 29.186 220.1 28.8715 220.211 28.4833C220.321 28.0952 220.374 27.6133 220.374 27.0445C220.374 26.4956 220.314 26.0338 220.203 25.6457C220.087 25.2575 219.943 24.9498 219.752 24.7087C219.564 24.4678 219.347 24.2939 219.094 24.1802C218.838 24.0663 218.577 24.0128 218.302 24.0128C217.897 24.0128 217.551 24.0797 217.264 24.2136C216.976 24.3474 216.741 24.5348 216.552 24.7824C216.367 25.0299 216.23 25.3178 216.146 25.6591C216.061 26.0005 216.015 26.3752 216.015 26.7902V27.205V27.3388C216.022 27.9076 216.086 28.3627 216.217 28.7175Z" fill="#101213"/>
<path d="M225.518 31.4131H223.544V29.0908H225.518V31.4131Z" fill="#101213"/>
<path d="M75.9036 27.8189V3.27344" stroke="#101213" stroke-width="1.5"/>
</g>
</g>
<defs>
<clipPath id="clip0_209_737">
<rect width="247.091" height="36" fill="white"/>
</clipPath>
</defs>
</svg>
